#!OML:ASF G:\JayActor3\Patient Classification 1\Patient 1\Session 2\male.ASF
:FULLY-SPECIFIED
:DEGREES
4914
root 44.0178 17.0092 -7.4228 4141.73 82.3173 -904.975
lowerback 4.85261 1.25484 3.5987
upperback 0.996003 1.95823 2.50389
thorax -1.66406 0.988418 0.435188
lowerneck 3.55486 0.8354 0.295953
upperneck -9.1617 1.69748 4.56942
head -3.64588 0.700156 1.38091
rclavicle 1.64991e-014 9.54166e-015
rhumerus -40.4434 6.53465 -80.3033
rradius 49.146
rwrist 7.49114
rhand -29.1027 7.6022
rfingers 7.12502
rthumb -2.4509 -22.3635
lclavicle 1.64991e-014 9.54166e-015
lhumerus -42.3927 1.23179 81.4346
lradius 39.0303
lwrist 12.098
lhand -21.1623 17.0486
lfingers 7.12502
lthumb 5.2176 46.9643
rfemur -16.3537 -2.06403 21.9285
rtibia 30.9794
rfoot -19.8779 -8.4017
rtoes 20.2959
lfemur -17.3063 -1.08285 -18.1683
ltibia 16.2325
lfoot -6.19656 -8.08064
ltoes -13.7908
4915
root 44.0831 16.9957 -7.43966 4143.61 82.6507 -902.838
lowerback 4.78614 1.22832 3.63449
upperback 1.0423 1.92124 2.5425
thorax -1.58009 0.971974 0.459479
lowerneck 3.70957 0.963754 0.372395
upperneck -9.11187 1.87246 4.55417
head -3.66174 0.782599 1.3543
rclavicle -2.34566e-014 9.54166e-015
rhumerus -40.4847 6.46817 -80.3184
rradius 49.0647
rwrist 7.5052
rhand -29.1596 7.64028
rfingers 7.12502
rthumb -2.50586 -22.3247
lclavicle -2.34566e-014 9.54166e-015
lhumerus -42.2955 1.19938 81.4442
lradius 38.8861
lwrist 11.976
lhand -21.1599 17.0294
lfingers 7.12502
lthumb 5.21991 46.9451
rfemur -15.7949 -2.14983 22.1831
rtibia 30.8518
rfoot -19.9229 -8.01971
rtoes 20.1712
lfemur -16.9861 -1.19737 -17.8804
ltibia 16.381
lfoot -4.76662 -8.02914
ltoes -10.818
4916
root 44.1473 16.9841 -7.45733 4145.9 82.9382 -900.272
lowerback 4.72887 1.18815 3.70565
upperback 1.0911 1.86851 2.5843
thorax -1.49796 0.947728 0.467954
lowerneck 3.87891 1.08873 0.4324
upperneck -9.06115 2.04553 4.57274
head -3.68083 0.863211 1.34176
rclavicle 1.13307e-014 -5.88403e-014
rhumerus -40.5185 6.36903 -80.3279
rradius 48.9359
rwrist 7.5371
rhand -29.259 7.71098
rfingers 7.12502
rthumb -2.60184 -22.2529
lclavicle 1.13307e-014 -5.88403e-014
lhumerus -42.1668 1.20492 81.4408
lradius 38.7093
lwrist 11.8223
lhand -21.176 17.0186
lfingers 7.12502
lthumb 5.2044 46.9347
rfemur -15.181 -2.23274 22.4592
rtibia 30.6596
rfoot -19.942 -7.66415
rtoes 20.0891
lfemur -16.7187 -1.33953 -17.5743
ltibia 16.7892
lfoot -3.74578 -7.83423
ltoes -8.11986
4917
root 44.2105 16.975 -7.47547 4148.45 83.1797 -897.435
lowerback 4.68396 1.1376 3.79372
upperback 1.14267 1.80327 2.623
thorax -1.41955 0.917259 0.464143
lowerneck 4.05268 1.20941 0.477585
upperneck -9.00338 2.21478 4.62224
head -3.69904 0.941303 1.34206
rclavicle 0 -6.36111e-015
rhumerus -40.5355 6.22371 -80.3307
rradius 48.7367
rwrist 7.60938
rhand -29.3999 7.80238
rfingers 7.12502
rthumb -2.73794 -22.1598
lclavicle 0 -6.36111e-015
lhumerus -41.9973 1.24867 81.4232
lradius 38.4896
lwrist 11.6501
lhand -21.217 17.0012
lfingers 7.12502
lthumb 5.16479 46.9182
rfemur -14.523 -2.28315 22.7386
rtibia 30.4162
rfoot -19.9491 -7.36264
rtoes 20.043
lfemur -16.501 -1.50557 -17.2741
ltibia 17.3832
lfoot -3.17151 -7.5328
ltoes -6.00188
4918
root 44.2725 16.9679 -7.49355 4150.97 83.3747 -894.608
lowerback 4.65159 1.07735 3.86866
upperback 1.19793 1.72443 2.6496
thorax -1.34473 0.879981 0.455604
lowerneck 4.21381 1.32529 0.504351
upperneck -8.92541 2.37867 4.70778
head -3.70867 1.01649 1.3576
rclavicle 1.27222e-014 7.95139e-015
rhumerus -40.5304 6.03153 -80.3303
rradius 48.4514
rwrist 7.73303
rhand -29.5637 7.89681
rfingers 7.12502
rthumb -2.8961 -22.0633
lclavicle 1.27222e-014 7.95139e-015
lhumerus -41.7888 1.3257 81.3898
lradius 38.2337
lwrist 11.4798
lhand -21.2891 16.9991
lfingers 7.12502
lthumb 5.09521 46.9178
rfemur -13.8378 -2.27776 22.996
rtibia 30.1486
rfoot -19.9664 -7.14416
rtoes 20.0265
lfemur -16.3066 -1.67287 -17.0115
ltibia 18.0651
lfoot -2.95841 -7.17676
ltoes -4.64265
4919
root 44.3337 16.9624 -7.51107 4153.18 83.5361 -892.098
lowerback 4.62177 1.01423 3.901
upperback 1.25773 1.63852 2.65322
thorax -1.26741 0.839075 0.447432
lowerneck 4.3356 1.43395 0.506815
upperneck -8.80874 2.53209 4.83233
head -3.69818 1.08704 1.39068
rclavicle 7.15625e-015 -1.51076e-014
rhumerus -40.5033 5.77847 -80.326
rradius 48.0727
rwrist 7.91867
rhand -29.7412 7.99124
rfingers 7.12502
rthumb -3.06751 -21.9664
lclavicle 7.15625e-015 -1.51076e-014
lhumerus -41.5371 1.41798 81.3429
lradius 37.9449
lwrist 11.3303
lhand -21.3838 17.0054
lfingers 7.12502
lthumb 5.00376 46.9263
rfemur -13.1526 -2.1996 23.2053
rtibia 29.8919
rfoot -20.0199 -7.02216
rtoes 20.0567
lfemur -16.1067 -1.84658 -16.8103
ltibia 18.7423
lfoot -3.01981 -6.79385
ltoes -4.08087
4920
root 44.394 16.958 -7.52741 4154.79 83.6842 -890.189
lowerback 4.59078 0.956014 3.86059
upperback 1.3175 1.554 2.62548
thorax -1.19059 0.798463 0.447409
lowerneck 4.39448 1.53314 0.493425
upperneck -8.63256 2.66937 4.98336
head -3.65527 1.15111 1.4359
rclavicle 1.25234e-014 -7.95139e-016
rhumerus -40.4652 5.47303 -80.3192
rradius 47.6121
rwrist 8.14541
rhand -29.8955 8.05414
rfingers 7.12502
rthumb -3.21657 -21.9013
lclavicle 1.25234e-014 -7.95139e-016
lhumerus -41.2468 1.50605 81.2872
lradius 37.6276
lwrist 11.2144
lhand -21.4914 17.0147
lfingers 7.12502
lthumb 4.89991 46.9381
rfemur -12.4978 -2.03565 23.3449
rtibia 29.6815
rfoot -20.1286 -7.00894
rtoes 20.102
lfemur -15.8783 -2.01495 -16.6916
ltibia 19.3425
lfoot -3.22102 -6.45615
ltoes -3.96444
